# xmcd CD database file
#
# Track frame offsets:
#	150
#	17366
#	36892
#	52992
#	64502
#	77903
#	100274
#	123649
#	151777
#	178043
#	199718
#
# Disc length: 2947 seconds
#
# Revision: 0
# Processed by: cddbd v1.5.2PL0 Copyright (c) Steve Scherf et al.
# Submitted via: CDex 1.51
#
DISCID=830b810b
DTITLE=Steve Stacey and the Stump Splitters - Tall Tails, Fibs and Outright Lies
DYEAR=2007
DGENRE=Country
TTITLE0=Whiskey
TTITLE1=Reasons
TTITLE2=Truck Driving Blues
TTITLE3=Double Fisting
TTITLE4=Dirty Little Mind
TTITLE5=Kentucky Bourbon
TTITLE6=Holland's Hill
TTITLE7=James Patrick Whelen
TTITLE8=Machine Gun Molly
TTITLE9=North Bay Holding Cell
TTITLE10=My Buck Owens Record
EXTD=YEAR: 2007
EXTT0=
EXTT1=
EXTT2=
EXTT3=
EXTT4=
EXTT5=
EXTT6=
EXTT7=
EXTT8=
EXTT9=
EXTT10=
PLAYORDER=
